<?xml version="1.0" encoding="UTF-8"?>
<svg id="Layer_2" data-name="Layer 2" xmlns="http://www.w3.org/2000/svg" viewBox="0 0 14.88 16">
  <defs>
    <style>
      .cls-1 {
        fill: #fff;
        stroke-width: 0px;
      }
    </style>
  </defs>
  <g id="Layer_1-2" data-name="Layer 1">
    <g>
      <path class="cls-1" d="M7.12,7.31c0,.08-.03.15-.08.2-.05.05-.12.08-.2.08s-.15-.03-.2-.08c-.05-.05-.08-.12-.08-.2,0-.15.13-.28.28-.28s.28.13.28.28Z"/>
      <path class="cls-1" d="M10.73,7.31c0,.08-.03.15-.08.2-.05.05-.12.08-.2.08s-.15-.03-.2-.08c-.05-.05-.08-.12-.08-.2,0-.15.13-.28.28-.28s.28.13.28.28Z"/>
      <g>
        <path class="cls-1" d="M10.87,14.12c-.03.4-.1.83-.2,1.19-.07.23-.15.43-.22.56-.05.1-.1.13-.11.14-.01,0-.06-.04-.11-.14-.08-.12-.16-.32-.22-.56-.07-.25-.13-.54-.16-.83.36-.09.7-.21,1.03-.36Z"/>
        <path class="cls-1" d="M6.98,14.48c-.04.29-.09.58-.16.83-.07.23-.14.43-.22.56-.06.1-.1.13-.11.14-.01,0-.06-.04-.11-.14-.07-.12-.16-.32-.22-.56-.1-.35-.17-.79-.2-1.19.33.15.67.27,1.03.36Z"/>
        <path class="cls-1" d="M1.56,8.26c-.14.09-.28.19-.4.28-.16.13-.3.25-.41.38-.14.07-.27.15-.39.25,0-.02,0-.03,0-.05l.28-1.07c.07-.25.32-.39.57-.33.23.06.38.29.34.53Z"/>
        <path class="cls-1" d="M2.44,8.68s0,.04,0,.06h-.66l.04-.14c.21-.13.43-.26.64-.37-.01.15-.02.3-.02.45Z"/>
        <path class="cls-1" d="M2.85,9.97s.08-.04.12-.07c.01,0,.02-.02.03-.03.02-.02.04-.05.06-.07.04-.06.07-.14.07-.22,0,0,0-.01,0-.02v-.02c0-.06-.01-.12-.03-.18-.03-.07-.07-.13-.13-.18-.02-.02-.05-.04-.08-.05-.05-.03-.11-.05-.17-.05-.02,0-.03,0-.04,0h-1.1s-.03,0-.05,0c-.03,0-.06,0-.09,0-.03,0-.06,0-.09.01-.07,0-.14.03-.21.05-.14.04-.28.1-.4.18-.09.05-.17.12-.24.19,0,0-.02.02-.03.03-.02.02-.04.04-.05.06-.02.02-.04.04-.06.07H.34s-.07.09-.1.14c-.15.24-.24.53-.24.83,0,.86.7,1.56,1.57,1.56h1.1c.26,0,.46-.21.46-.47,0-.14-.06-.27-.16-.35-.08-.07-.18-.11-.3-.11v-.17c.09,0,.18-.03.26-.08.02,0,.03-.02.04-.03.06-.05.11-.12.14-.2.02-.05.03-.1.03-.15,0-.14-.06-.27-.16-.36-.02-.01-.03-.03-.05-.04-.07-.05-.16-.07-.25-.07v-.17c.06,0,.12-.01.18-.04ZM1.65,11.83h-.17v-2.37h.17v2.37Z"/>
        <path class="cls-1" d="M14.87,10.39c-.01.11-.04.16-.05.17-.02,0-.07-.02-.16-.08-.12-.09-.27-.24-.42-.43,0,0-.01-.01-.02-.02.1-.43.15-.88.15-1.34,0-.23-.01-.45-.04-.67.04.07.08.16.12.25.19.45.34,1.04.4,1.53.03.24.03.46.01.6Z"/>
        <path class="cls-1" d="M9.87,9.64v.27c-.13.06-.26.11-.39.15-.16.05-.32.09-.48.12-.55.09-1.12.05-1.66-.12-.13-.04-.26-.09-.39-.15v-.26c0-.1.08-.18.18-.18h2.56c.1,0,.18.08.18.18Z"/>
        <path class="cls-1" d="M9.52,10.9c-.27.31-.66.51-1.11.51s-.84-.2-1.11-.51c.28-.29.67-.47,1.11-.47s.83.18,1.11.47Z"/>
        <path class="cls-1" d="M13.7,8.68c0,1.88-.97,3.52-2.45,4.46-.13.08-.26.16-.39.22-.34.18-.7.32-1.07.42-.14.04-.28.07-.42.09-.31.06-.63.09-.95.09s-.65-.03-.95-.09c-.14-.02-.28-.06-.42-.09-.38-.1-.73-.24-1.07-.42-.13-.07-.27-.14-.39-.22-.95-.61-1.69-1.51-2.1-2.58-.01-.12-.05-.23-.11-.33-.02-.06-.04-.13-.06-.19.05-.06.09-.13.12-.2.22.32.47.62.76.89.74,1.37,2.14,2.34,3.77,2.5-.87-.31-1.65-.83-2.26-1.5.63.28,1.33.43,2.07.43,2.89,0,5.23-2.34,5.23-5.23,0-.49-.07-.99-.21-1.48.58,1.08.93,2.17.93,3.24Z"/>
        <path class="cls-1" d="M10.44,6.44c.35-.59.55-1.27.55-2.01,0-.81-.27-1.63-.7-2.43-.6-.68-1.23-1.35-1.87-1.99-1.96,1.98-3.91,4.18-4.79,6.37.08.13.16.26.25.39.38-1.16,1.11-2.31,2-3.42-.84,1.26-1.45,2.56-1.62,3.87.34.35.75.63,1.21.83,0,.06,0,.11.01.16.09.56.57.96,1.13.96.46,0,.87-.27,1.05-.69.02-.05.04-.1.05-.15.49-.08.95-.26,1.36-.51v.2c0,.63.52,1.15,1.15,1.15s1.15-.52,1.15-1.15v-.44c0-.56-.4-1.03-.93-1.13ZM7.48,8c0,.12-.02.24-.07.35-.14.31-.45.53-.81.53-.44,0-.8-.32-.86-.73,0-.05-.01-.09-.01-.14v-.44c0-.48.39-.88.88-.88s.88.39.88.88v.44ZM11.1,8c0,.49-.39.88-.88.88s-.88-.39-.88-.88v-.44c0-.48.39-.88.88-.88.02,0,.03,0,.05,0,.46.03.82.41.82.87v.44Z"/>
      </g>
    </g>
  </g>
</svg>